<svg width="30" height="30" viewBox="0 0 30 30" fill="none" xmlns="http://www.w3.org/2000/svg">
<g clip-path="url(#clip0_20854_57859)">
<path d="M29.0908 25.7574C28.6856 26.724 28.0413 27.5716 27.2185 28.2206C26.6036 28.7046 25.9036 29.0694 25.1547 29.2962C24.2165 29.5791 23.0515 29.6685 21.6056 29.6685H8.39936C6.94309 29.6685 5.79888 29.5708 4.85023 29.2962C4.09967 29.0734 3.39901 28.7082 2.7865 28.2206C1.96444 27.5708 1.3203 26.7234 0.914159 25.7574C0.346216 24.3012 0.337891 22.6473 0.337891 21.5967V8.40292C0.337891 7.36273 0.337895 5.69843 0.914159 4.24216C1.31935 3.27565 1.96365 2.42804 2.7865 1.779C3.40138 1.29501 4.10131 0.930221 4.85023 0.703438C5.79888 0.428828 6.95141 0.331055 8.39936 0.331055H21.5993C23.0556 0.331055 24.1998 0.428828 25.1485 0.703438C25.8991 0.926189 26.5997 1.29136 27.2122 1.779C28.0343 2.42881 28.6784 3.2762 29.0846 4.24216C29.6608 5.69843 29.6608 7.36273 29.6608 8.40292V21.6029C29.6671 22.6473 29.6567 24.3012 29.0908 25.7574Z" fill="url(#paint0_linear_20854_57859)"/>
<path d="M17.5135 18.0424C17.4882 17.7268 17.3492 17.4311 17.1223 17.2103C16.6813 16.7505 15.9095 16.4468 15.0004 16.4468C14.0912 16.4468 13.3194 16.7401 12.8784 17.2103C12.6568 17.4349 12.5188 17.7285 12.4873 18.0424C12.4082 18.7269 12.4581 19.3135 12.5351 20.2622C12.6142 21.1609 12.7598 22.3654 12.9512 23.5762C13.0291 24.1377 13.143 24.6937 13.2924 25.2405C13.4588 25.7877 14.0559 26.2578 15.0045 26.2578C15.9532 26.2578 16.5586 25.7793 16.7167 25.2405C16.866 24.6937 16.98 24.1377 17.0578 23.5762C17.243 22.355 17.3907 21.1609 17.4739 20.2622C17.5679 19.5259 17.5811 18.7816 17.5135 18.0424Z" fill="white"/>
<path d="M17.4055 13.0548C17.4055 13.5305 17.2645 13.9954 17.0002 14.3909C16.736 14.7864 16.3604 15.0946 15.9209 15.2767C15.4815 15.4587 14.998 15.5063 14.5314 15.4135C14.0649 15.3207 13.6364 15.0917 13.3001 14.7554C12.9638 14.419 12.7347 13.9905 12.6419 13.524C12.5491 13.0575 12.5967 12.5739 12.7788 12.1345C12.9608 11.6951 13.269 11.3195 13.6645 11.0552C14.06 10.7909 14.525 10.6499 15.0006 10.6499C15.3165 10.6496 15.6294 10.7117 15.9213 10.8324C16.2132 10.9532 16.4784 11.1303 16.7018 11.3537C16.9251 11.577 17.1023 11.8423 17.223 12.1342C17.3438 12.4261 17.4058 12.7389 17.4055 13.0548Z" fill="white"/>
<path d="M14.9712 3.58006C12.5381 3.58832 10.1861 4.4561 8.33077 6.03014C6.4754 7.60418 5.23593 9.78322 4.83125 12.1824C4.42657 14.5817 4.88271 17.0467 6.11913 19.1422C7.35555 21.2378 9.29269 22.829 11.5885 23.6349C11.6108 23.6429 11.6348 23.645 11.6582 23.6411C11.6816 23.6372 11.7036 23.6273 11.7221 23.6125C11.7407 23.5978 11.7551 23.5785 11.7641 23.5565C11.7731 23.5346 11.7764 23.5107 11.7736 23.4872C11.7237 23.1356 11.6654 22.784 11.628 22.4304C11.6181 22.3701 11.5941 22.3131 11.5579 22.2639C11.5218 22.2148 11.4745 22.1748 11.42 22.1474C9.52407 21.3226 7.97017 19.8699 7.01977 18.0337C6.06937 16.1976 5.78049 14.0901 6.20173 12.0659C6.62298 10.0418 7.72863 8.22448 9.33264 6.91992C10.9366 5.61536 12.9411 4.90314 15.0086 4.90314C17.0761 4.90314 19.0806 5.61536 20.6846 6.91992C22.2886 8.22448 23.3942 10.0418 23.8155 12.0659C24.2367 14.0901 23.9478 16.1976 22.9974 18.0337C22.047 19.8699 20.4931 21.3226 18.5973 22.1474C18.5396 22.1705 18.4897 22.2092 18.4529 22.2592C18.4161 22.3092 18.3941 22.3685 18.3892 22.4304L18.2415 23.4872C18.2379 23.5109 18.2406 23.5351 18.2494 23.5574C18.2582 23.5797 18.2727 23.5993 18.2916 23.6141C18.3104 23.6289 18.3328 23.6384 18.3566 23.6417C18.3803 23.645 18.4045 23.642 18.4267 23.6328C20.7289 22.8247 22.6702 21.2269 23.9061 19.1231C25.142 17.0194 25.5924 14.5457 25.1773 12.1414C24.7623 9.737 23.5087 7.55749 21.6391 5.98977C19.7695 4.42205 17.4048 3.56754 14.9649 3.57798L14.9712 3.58006Z" fill="white"/>
<path d="M14.7367 7.00264C13.2836 7.05861 11.8851 7.57185 10.7407 8.4692C9.5963 9.36655 8.76435 10.6022 8.3634 12.0001C7.96245 13.398 8.01297 14.8868 8.50776 16.2543C9.00255 17.6218 9.91636 18.7983 11.119 19.616C11.1399 19.6272 11.1633 19.633 11.1871 19.6327C11.2108 19.6325 11.2342 19.6263 11.2549 19.6147C11.2756 19.6031 11.2931 19.5865 11.3057 19.5663C11.3183 19.5462 11.3256 19.5232 11.327 19.4995C11.3026 19.1053 11.3026 18.7099 11.327 18.3157C11.3319 18.2534 11.3221 18.1907 11.2982 18.1329C11.2744 18.075 11.2372 18.0236 11.1897 17.9829C10.3713 17.2169 9.80226 16.2225 9.5564 15.1289C9.31055 14.0353 9.39927 12.893 9.81106 11.8504C10.2228 10.8079 10.9387 9.91332 11.8655 9.28289C12.7923 8.65247 13.8873 8.31535 15.0082 8.31535C16.1291 8.31535 17.2241 8.65247 18.151 9.28289C19.0778 9.91332 19.7936 10.8079 20.2054 11.8504C20.6172 12.893 20.7059 14.0353 20.4601 15.1289C20.2142 16.2225 19.6451 17.2169 18.8268 17.9829C18.7829 18.0265 18.7482 18.0784 18.7247 18.1355C18.7011 18.1927 18.6891 18.2539 18.6895 18.3157C18.7082 18.6965 18.6895 19.0688 18.6895 19.4891C18.689 19.5135 18.6952 19.5377 18.7074 19.5589C18.7195 19.5801 18.7372 19.5977 18.7586 19.6096C18.7799 19.6216 18.8041 19.6275 18.8286 19.6268C18.8531 19.6261 18.8769 19.6188 18.8975 19.6056C20.1384 18.7626 21.0708 17.5383 21.5535 16.1179C22.0362 14.6976 22.0429 13.1586 21.5726 11.7341C21.1023 10.3096 20.1807 9.07715 18.9472 8.2234C17.7137 7.36964 16.2356 6.94108 14.7367 7.00264Z" fill="white"/>
</g>
<defs>
<linearGradient id="paint0_linear_20854_57859" x1="15.0004" y1="0.335215" x2="15.0004" y2="29.6685" gradientUnits="userSpaceOnUse">
<stop stop-color="#F452FF"/>
<stop offset="1" stop-color="#832BC1"/>
</linearGradient>
<clipPath id="clip0_20854_57859">
<rect width="29.3333" height="29.3333" fill="white" transform="translate(0.333984 0.334229)"/>
</clipPath>
</defs>
</svg>
