<svg width="34" height="34" viewBox="0 0 34 34" fill="none" xmlns="http://www.w3.org/2000/svg">
<g clip-path="url(#clip0_20854_57873)">
<path d="M16.6667 0.665771C13.3703 0.665771 10.148 1.64325 7.40717 3.47461C4.66635 5.30596 2.53014 7.90894 1.26868 10.9544C0.00722198 13.9998 -0.322834 17.3509 0.320253 20.5839C0.96334 23.817 2.55069 26.7867 4.88157 29.1176C7.21244 31.4484 10.1822 33.0358 13.4152 33.6788C16.6482 34.3219 19.9993 33.9919 23.0447 32.7304C26.0902 31.469 28.6931 29.3327 30.5245 26.5919C32.3559 23.8511 33.3333 20.6288 33.3333 17.3324C33.3333 12.9122 31.5774 8.67293 28.4518 5.54733C25.3262 2.42172 21.087 0.665771 16.6667 0.665771ZM24.3104 24.7062C24.1669 24.941 23.9362 25.1093 23.6688 25.1743C23.4014 25.2392 23.1191 25.1955 22.8838 25.0528C18.9689 22.6593 14.0434 22.134 8.24213 23.4474C8.10659 23.4854 7.96476 23.4954 7.82523 23.4769C7.6857 23.4584 7.55138 23.4118 7.4304 23.3398C7.30942 23.2679 7.20431 23.1721 7.12143 23.0584C7.03855 22.9446 6.97962 22.8152 6.94823 22.678C6.91683 22.5408 6.91361 22.3987 6.93878 22.2602C6.96394 22.1217 7.01695 21.9898 7.0946 21.8724C7.17226 21.755 7.27294 21.6546 7.39054 21.5773C7.50814 21.4999 7.64022 21.4473 7.77877 21.4225C14.1273 19.9631 19.5746 20.5943 23.9675 23.2796C24.2016 23.4237 24.3692 23.6547 24.4335 23.9221C24.4977 24.1894 24.4535 24.4714 24.3104 24.7062ZM26.35 20.1674C26.2607 20.3129 26.1436 20.4394 26.0054 20.5396C25.8672 20.6398 25.7106 20.7118 25.5446 20.7514C25.3785 20.7911 25.2063 20.7976 25.0377 20.7706C24.8692 20.7436 24.7076 20.6837 24.5622 20.5943C20.0817 17.8396 13.2516 17.0442 7.95389 18.6532C7.78935 18.7079 7.61554 18.7291 7.44269 18.7155C7.26985 18.7019 7.10147 18.6539 6.94748 18.5742C6.79349 18.4945 6.65702 18.3848 6.54609 18.2516C6.43517 18.1183 6.35205 17.9642 6.30162 17.7983C6.2512 17.6324 6.23449 17.4581 6.2525 17.2857C6.2705 17.1133 6.32284 16.9462 6.40644 16.7943C6.49004 16.6424 6.60321 16.5088 6.73927 16.4013C6.87532 16.2938 7.03151 16.2147 7.19863 16.1685C13.2516 14.3443 20.7786 15.2199 25.9194 18.3832C26.2129 18.5629 26.4231 18.8517 26.5038 19.1862C26.5845 19.5208 26.5292 19.8736 26.35 20.1674ZM26.5251 15.4242C21.1544 12.2354 12.2957 11.9398 7.16216 13.4978C6.96619 13.5572 6.76044 13.5774 6.55665 13.5573C6.35286 13.5372 6.15503 13.4772 5.97445 13.3806C5.79386 13.2841 5.63407 13.1529 5.50419 12.9946C5.3743 12.8363 5.27688 12.6539 5.21746 12.458C5.15805 12.262 5.13782 12.0562 5.15793 11.8524C5.17803 11.6487 5.23807 11.4508 5.33463 11.2702C5.43119 11.0897 5.56236 10.9299 5.72068 10.8C5.87899 10.6701 6.06134 10.5727 6.25731 10.5133C12.1461 8.72546 21.9462 9.05383 28.1159 12.7425C28.292 12.847 28.4458 12.9851 28.5685 13.149C28.6912 13.3129 28.7804 13.4993 28.831 13.6977C28.8817 13.8961 28.8928 14.1025 28.8637 14.3051C28.8345 14.5078 28.7658 14.7027 28.6614 14.8788C28.5569 15.0549 28.4188 15.2086 28.2549 15.3313C28.091 15.4541 27.9046 15.5433 27.7062 15.5939C27.5078 15.6446 27.3014 15.6557 27.0988 15.6265C26.8961 15.5974 26.7012 15.5287 26.5251 15.4242Z" fill="#1ED760"/>
</g>
<defs>
<clipPath id="clip0_20854_57873">
<rect width="33.3333" height="33.3333" fill="white" transform="translate(0 0.665771)"/>
</clipPath>
</defs>
</svg>
