<svg width="33" height="32" viewBox="0 0 33 32" fill="none" xmlns="http://www.w3.org/2000/svg">
<path d="M30.3866 8.90204C30.0533 7.63537 29.0533 6.63537 27.7866 6.28537C25.5033 5.6687 16.3366 5.6687 16.3366 5.6687C16.3366 5.6687 7.16992 5.6687 4.86992 6.28537C3.60326 6.6187 2.61992 7.6187 2.26992 8.90204C1.66992 11.202 1.66992 16.002 1.66992 16.002C1.66992 16.002 1.66992 20.802 2.28659 23.102C2.61992 24.3687 3.61992 25.3687 4.88659 25.7187C7.16992 26.3354 16.3366 26.3354 16.3366 26.3354C16.3366 26.3354 25.5033 26.3354 27.8033 25.7187C29.0699 25.3854 30.0533 24.3854 30.4033 23.102C31.0033 20.802 31.0033 16.002 31.0033 16.002C31.0033 16.002 31.0033 11.202 30.3866 8.90204Z" fill="#EE3124"/>
<path d="M13.3359 20.3708V11.6375L21.0026 16.0041L13.3359 20.3708Z" fill="white"/>
</svg>
